/* XPM */
static char *result[] = {
/* columns rows colors chars-per-pixel */
"48 48 176 2 ",
"   c #171D27",
".  c #12172E",
"X  c #121A2D",
"o  c #151A2E",
"O  c #141B2E",
"+  c #151C2E",
"@  c #181D2F",
"#  c #181E2E",
"$  c #181E2F",
"%  c #1A1F2F",
"&  c #1B1F30",
"*  c #191F32",
"=  c #1E242F",
"-  c #20262F",
";  c #23292D",
":  c #292F2F",
">  c #212231",
",  c #232531",
"<  c #242631",
"1  c #252731",
"2  c #272633",
"3  c #262D30",
"4  c #292833",
"5  c #2A2933",
"6  c #2F2E34",
"7  c #353334",
"8  c #373037",
"9  c #343A30",
"0  c #363D31",
"q  c #3F3B36",
"w  c #3F3D35",
"e  c #3C3439",
"r  c #33393A",
"t  c #413C37",
"y  c #453B3A",
"u  c #453D39",
"i  c #483E3B",
"p  c #4E3F3E",
"a  c #3E4432",
"s  c #444036",
"d  c #444634",
"f  c #454C33",
"g  c #474935",
"h  c #474138",
"j  c #4B4339",
"k  c #4D443A",
"l  c #51473B",
"z  c #4F5435",
"x  c #4B5238",
"c  c #515536",
"v  c #525834",
"b  c #595F35",
"n  c #56503C",
"m  c #5D533D",
"M  c #676C37",
"N  c #666639",
"B  c #6A703B",
"V  c #313647",
"C  c #554440",
"Z  c #5F4A43",
"A  c #695343",
"S  c #6C5C40",
"D  c #775949",
"F  c #796643",
"G  c #766249",
"H  c #6E7444",
"J  c #777773",
"K  c #797B7C",
"L  c #815F4C",
"P  c #826D44",
"I  c #8E6E4C",
"U  c #946F4F",
"Y  c #867144",
"T  c #867244",
"R  c #877B40",
"E  c #8D7149",
"W  c #907749",
"Q  c #957A49",
"!  c #996E53",
"~  c #A47556",
"^  c #A67855",
"/  c #A87856",
"(  c #AA7857",
")  c #AC7A57",
"_  c #AF7C59",
"`  c #7B8237",
"'  c #898F3A",
"]  c #A49E3D",
"[  c #A6A93E",
"{  c #C3CA3E",
"}  c #9A8647",
"|  c #9C8647",
" . c #9A9740",
".. c #AD8B4E",
"X. c #AB9C46",
"o. c #AF9F47",
"O. c #B5954F",
"+. c #B68657",
"@. c #B18852",
"#. c #B78658",
"$. c #B99550",
"%. c #BC9056",
"&. c #B3B042",
"*. c #B5BB5B",
"=. c #AFB376",
"-. c #AFB478",
";. c #C49657",
":. c #C39A54",
">. c #C59B54",
",. c #C59C54",
"<. c #C69F54",
"1. c #CCB84E",
"2. c #D7BD4F",
"3. c #C4A551",
"4. c #C9A054",
"5. c #CDA454",
"6. c #C9A950",
"7. c #CAA951",
"8. c #CDAC52",
"9. c #D1A755",
"0. c #D3AE53",
"q. c #D1A954",
"w. c #D6B452",
"e. c #D5B950",
"r. c #D7BB50",
"t. c #C4A46E",
"y. c #CECC45",
"u. c #D1C24C",
"i. c #D5C74E",
"p. c #D8C74B",
"a. c #D9C34E",
"s. c #D4CB48",
"d. c #D6CB4A",
"f. c #D7CD48",
"g. c #CFD044",
"h. c #DBD747",
"j. c #D1D941",
"k. c #DED24A",
"l. c #DFD34A",
"z. c #C3CA5E",
"x. c #D5D051",
"c. c #E1DD45",
"v. c #E4D64E",
"b. c #E1DA49",
"n. c #E5DB4A",
"m. c #E0DC48",
"M. c #E3E147",
"N. c #E4E147",
"B. c #E6EB43",
"V. c #E7E945",
"C. c #E8ED45",
"Z. c #E9EE45",
"A. c #EAEF45",
"S. c #E4E048",
"D. c #E9F141",
"F. c #EAF243",
"G. c #EAF343",
"H. c #EAF244",
"J. c #EBF344",
"K. c #E9ED51",
"L. c #EBEF60",
"P. c #EEF464",
"I. c #F0F572",
"U. c #B4B88E",
"Y. c #B6B8BE",
"T. c #D7BEB0",
"R. c #C6C995",
"E. c #EBEE99",
"W. c #F1F597",
"Q. c #F4F89F",
"!. c #D6C8B9",
"~. c #F5F6B9",
"^. c #FFFFEC",
"/. c #FFFFF2",
"(. c #FFFEF8",
"). c None",
/* pixels */
").).).).).).).).).).).).).).).).).).).).).).).).).).).).).).).).).).).).).).).).).).).).).).).).",
").).).).).).).).).).).).).).).).).).).).).).).).).).).).).).).).).).).).).).).).).).).).).).).).",
").).).).).).).).).).).).).).).).).).).).).).).).).).).).).).).).).).).).).).).).).).).).).).).).",
").).).).).).).).).).).).).).).).).).).).).).).).).).).).).).).).).).).).).).).).).).).).).).).).",
").).).).).).).).).).).).).).).).).).).).).).).).).).).).).).).).).).).).).).).).).).).).).).).).",
").).).).).).).).).).).).).).).).).).).).).).).).).).).).).).).).).).).).).).).).).).).).).).).).",
").).).).).).).).).).).).).).).).).).).).).).).).).).).).).).).).).).).).).).).).).).).).).).).).",
").).).).).).).).).).).).).).).).).).).).).).).).).).).).).).).).).).).).).).).).).).).).).).).).",
").).).).).).).).).).).).).).).).).).).).).).).).).).).).).).).).).).).).).).).).).).).).).).).).",
").).).).).).).).).).).).).).).).).).).).).).).).).).).).).).).).).).).).).).).).).).).).).).).).",
").).).).).).).).).).).).).).).).).).).).).).).).).).).).).).).).).).).).).).).).).).).).).).).).",
").).).).).).).).).).).).).).).).).).).).).).).).).).).).).).).).).).).).).).).).).).).).).).).).",
").).).).).).).).).).).).).).).).).).).).).).).).).).).).).).).).).).).).).).).).).).).).).).).).",
").).).).).).).).).).).).).).).).).).).).).).).).).).).).).).).).).).).).).).).).).).).).).).).).",
").).).).).).).).).).).).).).).).).).).).).).).).).).).).).).).).).).).).).).).).).).).).).).).).",
").).).).).).).).).).).).).).).).).).).).).).).).).).).).).).).).).).).).).).).).).).).).).).).).",
").).).).).).).).).).).).).).).).).).).).).).).).).).).).).).).).).).).).).).).).).).).).).).).).",
").).).).).).).).).).).).).).).).).).).).).).).).).).).).).).).).).).).).).).).).).).).).).).).).",
").).).).).).).).).).).).).).).).).).).).).).).).).).).).).).).).).).).).).).).).).).).).).).).).",
").).).).).).).).).).).).).).).).).).).).).).).).).).).).).= 3 ).).).).).).).).).).).).).).).).).",
").).).).).).).).).).).).).).).).).).).).).).).).).).).).).9 [ ' f ).).).).).).).).).).).).).).).",
").).).).).).).).).).).).).).).).).).).).).).).).).).).).* r o.n.X.6 ).).).).).).).).).).).).).).",
").).).).).).).).).).).).).).).).).).).).).).).).).).).  V Y.J R P 7 ).).).).).).).).).).).).).).",
").).).).).).).).).).).).).).).).).).).).).).).).- B =.-.H K U.c o ).).).).).).).).).).).).).).).",
").).).).).).).).).).).).).).).).).).).).).).).# ` P./.(.W.] d a ).).).).).).).).).).).).).).).).",
").).).).).).).).).).).).).).).).).).).).).).. M { z.!.T.Q.c.T 1 ).).).).).).).).).).).).).).).).",
").).).).).).).).).).).).).).).).).).).).: v F } g n G t.L.V.7.t ).).).).).).).).).).).).).).).).",
").).).).).).).).).).).).).).).).).).).x R.E.v.Y < | y.f.B.b.q.S ).).).).).).).).).).).).).).).).",
").).).).).).).).).).).).).).).).).).; *.^.~.i.&.0 w N s.N.e.;.A ).).).).).).).).).).).).).).).).",
").).).).).).).).).).).).).).).).).).s x.I.K.3.W z  .q O.%.+./ p ).).).).).).).).).).).).).).).).",
").).).).).).).).).).).).).).).).).).l p.D.F.d.^ I m b h.<.( Z $ ).).).).).).).).).).).).).).).).",
").).).).).).).).).).).).).).).).).).j 6.S.G.u.1.m.g.j.Z.8.) L 2 ).).).).).).).).).).).).).).).).",
").).).).).).).).).).).).).).).).).)., Q w.k.M.C.H.J.A.l.,._ ! 4 ).).).).).).).).).).).).).).).).",
").).).).).).).).).).).).).).).).).).).h $.9.0.2.a.a.r.5.#.~ C + ).).).).).).).).).).).).).).).).",
").).).).).).).).).).).).).).).).).).).O u E ..:.4.>.@.U D e @ + ).).).).).).).).).).).).).).).).",
").).).).).).).).).).).).).).).).).).).).).& 5 y k i 8 > % X ).).).).).).).).).).).).).).).).).).",
").).).).).).).).).).).).).).).).).).).).).).).).).).).).).).).).).).).).).).).).).).).).).).).).",
").).).).).).).).).).).).).).).).).).).).).).).).).).).).).).).).).).).).).).).).).).).).).).).).",
").).).).).).).).).).).).).).).).).).).).).).).).).).).).).).).).).).).).).).).).).).).).).).).).",
").).).).).).).).).).).).).).).).).).).).).).).).).).).).).).).).).).).).).).).).).).).).).).).).",
").).).).).).).).).).).).).).).).).).).).).).).).).).).).).).).).).).).).).).).).).).).).).).).).",
").).).).).).).).).).).).).).).).).).).).).).).).).).).).).).).).).).).).).).).).).).).).).).).).",
").).).).).).).).).).).).).).).).).).).).).).).).).).).).).).).).).).).).).).).).).).).).).).).).",
").).).).).).).).).).).).).).).).).).).).).).).).).).).).).).).).).).).).).).).).).).).).).).).).",
").).).).).).).).).).).).).).).).).).).).).).).).).).).).).).).).).).).).).).).).).).).).).).).).",
").).).).).).).).).).).).).).).).).).).).).).).).).).).).).).).).).).).).).).).).).).).).).).).).",
").).).).).).).).).).).).).).).).).).).).).).).).).).).).).).).).).).).).).).).).).).).).).).).).",
").).).).).).).).).).).).).).).).).).).).).).).).).).).).).).).).).).).).).).).).).).).).).).).)."
};
