/* XPM */
static char *c8e022e58c7e4e45f9fd94defc6e092cQ5XfvHwQsUBcTLRE[] = {
/* columns rows colors chars-per-pixel */
"32 32 9 1 ",
"  c None",
". c #0C0816",
"X c #26323C",
"o c #4C4138",
"O c #746658",
"+ c #555461",
"@ c #845A78",
"# c #6B7B89",
"$ c #939388",
/* pixels */
"           ..........           ",
"         ..++@+@@@@+....        ",
"       ..+@@@@@@@@@@@@+...      ",
"      .+@@@##@#@@@#@@@@@+..     ",
"     .+@@@@@@@@@@@@@@@@@@@..    ",
"    .o@@@@@ooooo@@@@@@#@@@@+.   ",
"    .@@@ooooXXoooo@@@@@@@@@@.   ",
"   .@@@oXXoOOOOOOOoo@@@@#@@@+.  ",
"  .o@@ooOOOO$$$$$OOOoo@@@#@@@.. ",
"  .@@oXoOO$$OOoooO$$Ooo@@@@@@+. ",
"  .@ooo$OO$OOoXXooo$$Ooo@@@@@@..",
"  .@oOoO$OOooOOOXoOOOOOoo@@#@@@.",
"  .@oo$$OOXoO$$$OXoo$$$OXo@@@@+.",
"  .@oOOO$$.O$$$$$OXoOOOOoo@@@@@.",
"   .@ooOO+.O$$$$$OXO$$$OoXo@@@@.",
"   .+o.oo.O$$$$$$$.OOO$$Ooo@@@@.",
"   ..+o..o$$$$$$$$.ooOOO$oX@@@@.",
"    ..+.o$$$$$$$$$.OOOO$OoX@@@@.",
"      .O$$$$$$$$$O.OO$$OooX@@@@.",
"     .O$$$$$$$$$$O.oO$$$$$o@@@. ",
"    .$$$$$$$$$$$$.oOoOO$$o@@@@. ",
"   .$$$$$$$$$$$$$.oO$$Ooo@@@o.  ",
"  .O$$$$$$$$$$$$$...OOoo@@@o..  ",
"  .$$$$$$$$$$$$$O.+oo+@@@o...   ",
" .O$$$$$$$$$$$$$....oooo....    ",
" .$O$OO$$$$$$$$$.   ....        ",
" .O$O$$$$$$O$O$.                ",
" .oOOOO$OO$$$O.                 ",
" ..OoOOO$OOO$o.                 ",
"  .oOOOoOOOo..                  ",
"   ...OOoo..                    ",
"     .....                      "
};
