/* XPM */
static char * exit_xpm[] = {
"32 32 34 1",
" 	c #40342D",
".	c #221C1A",
"+	c #5A4E44",
"@	c #796755",
"#	c #423934",
"$	c #7A7290",
"%	c #58526A",
"&	c #413D4F",
"*	c #2C2116",
"=	c #766047",
"-	c #836B52",
";	c #634E38",
">	c #78624B",
",	c #67594B",
"'	c #796858",
")	c #4C3928",
"!	c #523F2C",
"~	c #999088",
"{	c #AEA59D",
"]	c #B0AAA2",
"^	c #B3AEA7",
"/	c #766D66",
"(	c #81776F",
"_	c #888078",
":	c #3E2D1E",
"<	c #7C644D",
"[	c #B9B9B9",
"}	c #727272",
"|	c #777777",
"1	c #606060",
"2	c #474747",
"3	c #7F7F7F",
"4	c #66513D",
"5	c #AAA098",
"    ..++++++@@##............    ",
"....##+$$$$$$$$$$$$$$$$$$+@@....",
"....#$$%%%%%%%%%%%%%%%%%%$$@....",
"++@@$%%%%%%%%%%%%%%%%%%%%%%$..++",
"++@$%%%%%%%%%%%%%%%%%%%%%%%%$.++",
"++$%%%%&&&&&&&&&&&&&&&&&&%%%%$++",
"+$%%%%&&****************&&%%%%$+",
"$%%%%&&**=-*;-*=>*,'*''**&&%%%%$",
"$%%%&&*)*);*))*;)*);**;*=*&&%%%$",
"$%%%&*)!*))*))*;)*);;*)*))*&%%%$",
"$%%%&*)!*))*))*!!*))**)*!)*&%%%$",
"$%%%&~{]~~~~~~~^^~~~~~~~{{~&%%%$",
"$%%%&/(_///////((///////((/&%%%$",
"$%%%&*::*::*::*:*:::*::*::*&%%%$",
"$%%%&*;!*)!*)!*)*!)!*)!*)!*&%%%$",
"$%%%&*;!*)!*)!*)*;)!*;!*)!*&%%%$",
"$%%%&*;!*)<*)!*)*;)!*;!*)!*&%%%$",
"$%%%&*;!*;!*)!*)*=;!*;!*;!*&%%%$",
"$%%%&*;!*;!*)!*)**;!*;[[[!*&%%%$",
"$%%%&*;!*;!*)!*=;*;!*;}|}!*&%%%$",
"$%%%&*;!*;!*)!*;;*;!*12221*&%%%$",
"$%%%&*;!*;)*))*);*;)[!)*;![&%%%$",
"$%%%&*;!*;)*))*);*;)1!)*;)1&%%%$",
"$%%%&*;!*;)**)*);*;)*}333}*&%%%$",
"$%%%&*))*;4<*)*);*;)*!222)*&%%%$",
"$%%%&*))*))!*)*))*;**!)*))*&%%%$",
"$%%%&*))*)!*))*))*!*!!)*))*&%%%$",
"$%%%&~5]~~~~~~~5]~~~~~~~5]~&%%%$",
"$%%%&/((///////((///////((/&%%%$",
"$%%%&*::*::*::*::*::*::*::*&%%%$",
"$%%%&*))**)*))*))*))*))*))*&%%%$",
"$%%%&*))4*)*4)*);*))*))*))*&%%%$"};
