/* XPM */
static char *result[] = {
/* columns rows colors chars-per-pixel */
"48 32 203 2 ",
"   c #1B2334",
".  c #222C3B",
"X  c #2D2B36",
"o  c #2B353F",
"O  c #34353D",
"+  c #3A3438",
"@  c #3B3838",
"#  c #312D37",
"$  c #483E3C",
"%  c #58493E",
"&  c #5B5639",
"*  c #4F5335",
"=  c #7A7B3C",
"-  c #293541",
";  c #2C3A45",
":  c #2D3E4A",
">  c #273745",
",  c #323D44",
"<  c #333B43",
"1  c #35454D",
"2  c #3C464A",
"3  c #3C494D",
"4  c #3C4147",
"5  c #314550",
"6  c #364A53",
"7  c #3B4D53",
"8  c #384F58",
"9  c #3D5157",
"0  c #3C535B",
"q  c #37525C",
"w  c #3A5660",
"e  c #3D5A63",
"r  c #484140",
"t  c #5A4A44",
"y  c #56594A",
"u  c #424F52",
"i  c #415256",
"p  c #42555A",
"a  c #43595D",
"s  c #4A5857",
"d  c #525A56",
"f  c #4F584A",
"g  c #614E45",
"h  c #695545",
"j  c #705647",
"k  c #795D4B",
"l  c #586559",
"z  c #6A674A",
"x  c #6D6E5B",
"c  c #656756",
"v  c #6A7150",
"b  c #746640",
"n  c #435C62",
"m  c #456166",
"M  c #4C6464",
"N  c #4C696B",
"B  c #48656B",
"V  c #526D6C",
"C  c #596964",
"Z  c #5C736F",
"A  c #4B6E75",
"S  c #4D767B",
"D  c #4D7073",
"F  c #547375",
"G  c #5C7573",
"H  c #557679",
"J  c #557B7D",
"K  c #5B7C7C",
"L  c #597876",
"P  c #6C7A6D",
"I  c #667063",
"U  c #7C7B63",
"Y  c #657D73",
"T  c #667F79",
"R  c #616C63",
"E  c #807F3E",
"W  c #88674A",
"Q  c #85684B",
"!  c #94734C",
"~  c #806950",
"^  c #897953",
"/  c #9A7352",
"(  c #8D7149",
")  c #A37A55",
"_  c #AA7D56",
"`  c #59807F",
"'  c #73917C",
"]  c #86873C",
"[  c #999F3E",
"{  c #939A3B",
"}  c #8D923B",
"|  c #B4BA3F",
" . c #9D834B",
".. c #989A41",
"X. c #8A8557",
"o. c #958F5E",
"O. c #98945E",
"+. c #AC8359",
"@. c #AB8859",
"#. c #B58957",
"$. c #B69954",
"%. c #A38E48",
"&. c #9CA24B",
"*. c #B7A04E",
"=. c #B4A95B",
"-. c #A5B05B",
";. c #85846A",
":. c #979A6A",
">. c #879579",
",. c #949675",
"<. c #8E986C",
"1. c #A39C69",
"2. c #ABB06C",
"3. c #C1975A",
"4. c #C6AB5B",
"5. c #D1AC53",
"6. c #D7BB50",
"7. c #C1B660",
"8. c #BDC076",
"9. c #CBCB44",
"0. c #CDD341",
"q. c #E2D84A",
"w. c #DCE343",
"e. c #E3E445",
"r. c #E4E64B",
"t. c #EBF247",
"y. c #EDF35D",
"u. c #DDD461",
"i. c #D9CC74",
"p. c #CECB6F",
"a. c #EFF470",
"s. c #F0F665",
"d. c #4F7A80",
"f. c #5B7E83",
"g. c #567780",
"h. c #5B8384",
"j. c #5C8789",
"k. c #5C8B8D",
"l. c #578589",
"z. c #5D8F91",
"x. c #5E9091",
"c. c #648684",
"v. c #658B85",
"b. c #6D8981",
"n. c #628C8C",
"m. c #628689",
"M. c #69918D",
"N. c #789A8E",
"B. c #668F90",
"V. c #639394",
"C. c #6B9493",
"Z. c #649799",
"A. c #6A9698",
"S. c #659B9B",
"D. c #6B9C9C",
"F. c #699997",
"G. c #719A95",
"H. c #749D9B",
"J. c #719795",
"K. c #6EA19D",
"L. c #7BA39C",
"P. c #729FA3",
"I. c #6DA3A2",
"U. c #74A3A6",
"Y. c #75A8A4",
"T. c #7AABA5",
"R. c #74AAAB",
"E. c #7BADAB",
"W. c #76A7A9",
"Q. c #7BAEB1",
"!. c #7DB3B4",
"~. c #929E83",
"^. c #819581",
"/. c #94A782",
"(. c #86A893",
"). c #8EB59F",
"_. c #93A98B",
"`. c #B3BC8B",
"'. c #A9B48F",
"]. c #82ADA4",
"[. c #81AEA9",
"{. c #8CB6AD",
"}. c #8DB9AE",
"|. c #86B2A6",
" X c #82B4B3",
".X c #8CBBB5",
"XX c #82B7B8",
"oX c #86BCBC",
"OX c #89BABA",
"+X c #93BEB4",
"@X c #B2C19D",
"#X c #8AC0BF",
"$X c #94C2BB",
"%X c #9AC7BD",
"&X c #CCD182",
"*X c #F2F789",
"=X c #F6FA9B",
"-X c #F5F8A9",
";X c #8CC2C3",
":X c #9BCAC3",
">X c #FAFCC8",
",X c #FAFCD5",
"<X c None",
/* pixels */
"<X<X<X<X<X<X<X<X<X<X<X<X<X<X<X<X<X<X<X<X<X<X<X<X<X<X<X<X<X<X<X<X<X<X<X<X<X<X<X<X<X<X<X<X<X<X<X<X",
"<X<X<X<X<X<X<X<X<X<X<X<X<X<X<X<X<X<X<X<X<X> - e n 5 . <X<X<X<X<X<X<X<X<X<X<X<X<X<X<X<X<X<X<X<X<X",
"<X<X<X<X<X<X<X<X<X<X<X<X<X<X<X<X<X5 g.B V.V.h.V.F.x.J L <.K 5 <X<X<X<X<X<X<X<X<X<X<X<X<X<X<X<X<X",
"<X<X<X<X<X<X<X<X<X<X<X<X<X<X<X<X5 S.!.J.T.R.D.F.R.!.R.D.m.!.V.1 <X<X<X<X<X<X<X<X<X<X<X<X<X<X<X<X",
"<X<X<X<X<X<X<X<X<X<X<X<X<X<Xw : p D.+X`./.W.S.V.Q.oX!.H A.OXF.0 5 q <X<X<X<X<X<X<X<X<X<X<X<X<X<X",
"<X<X<X<X<X<X<X<X<X<X<X<Xw n b.c n h.D.' Y I.K.I.D.S.W.T >.L.h.p m k.n w <X<X<X<X<X<X<X<X<X<X<X<X",
"<X<X<X<X<X<X<X<X<X<X<X. m J >.o.m. XD.n n U. XE.G B.R.P p.@X!.C.L J J m . <X<X<X<X<X<X<X<X<X<X<X",
"<X<X<X<X<X<X<X<X<X<X<X9 p s d 3 j..XE.n a D.I.E.M.h.S.C X./.!.n.9 3 3 a 9 <X<X<X<X<X<X<X<X<X<X<X",
"<X<X<X<X<X<X<X<X<X- 1 3 h./.o.d c.k.D.D.B.j.B.S.J N I.V.C.B.k.g.a B F.f.1 1 - <X<X<X<X<X<X<X<X<X",
"<X<X<X<X<X<X<X<X<Xa p 9 E.|.<.p.O.p n.oX:X+XK V n 0 C.{.{.C.p p k.oX;XT.7 7 a <X<X<X<X<X<X<X<X<X",
"<X<X<X<X<X<X<X<Xo 3 ; N V.E.2.p.! a ` S.U.].M f.U. XJ.J F.M.l =.'.T.R.V.M , v O <X<X<X<X<X<X<X<X",
"<X<X<X<X<X<X<X  6 , 7 f.l.l.V.l u 9 k.S.S.B.s f.R.Y.h.A ' 1.z u.p.v.l.h.h.9 c p   <X<X<X<X<X<X<X",
"<X<X<X<X<X<X<X3 U l H oXXXU.!.h.; F D.Z.A.T 1.T j.R.A.W.J.(.G z >.Q.I.oXoXH 6 M 1 <X<X<X<X<X<X<X",
"<X<X<X<X<X<X1 l 7.^ Z.!.;X:X$XC.7 F Q.+X+X].(.V 0 A.Q.R.K.S.D 6 C.$X:X%X.XZ.3 1 p 1 <X<X<X<X<X<X",
"<X<X<X<X<X<Xo 2 f l z.S.I.T.G.V 6 a j.T.[.[.S.G s F S.S.S.l.a 7 V J.[.(.~.V.n ; 1 o <X<X<X<X<X<X",
"<X<X<X<X<X<Xo - m j.W.R.I.I.Z.a @ k ;.P ^.,.x @.+.c ^ ;.C U ^ @ p M.^.I 2.H.j.C z < <X<X<X<X<X<X",
"<X<X<X<X<X<Xo n F P ~.].!.Z.H M 2 / ) g +.@.h +.) h +.) g @./ r M x i.2.N.v.V I ,.< <X<X<X<X<X<X",
"<X<X<X<X<X  m !.].&Xu.z >.G p n < W ! % /  .& !  .& %.! % ! W ; a d =.-.s L C. XE.n   <X<X<X<X<X",
"<X<X<X<X<X- l.R.M.-.=.y :.Y [.c.1 + @ # * [ [ ....&.[ * X @ + 1 c.{..XH.9 H.+X.XR.h.- <X<X<X<X<X",
"<X<X<X<X<X> x.K.K.F.Y u h.K.T.k.p t k Q ] t.=X>X*Xs.t.] j k t a n.Y.T.M.p D S.S.S.V.> <X<X<X<X<X",
"<X<X<X<X<X1 V.!.R.R.`.z d.S.S.B.n t _ @.E r.-X,X>Xs.w.= *.) t c M.S.V.1.:.m.W.R.!.F.1 <X<X<X<X<X",
"<X<X<X<X  B D.Q.{..X).V Z.!.R.j.q r / $.] w.t.y.*Xy.0.= 4._ % ;.'.R.V.X.:.!..X{.Q.S.B   <X<X<X<X",
"<X<X<X<X. 8 S x.Z.D.V.L.:X;X#XoXZ.4 / 4.} 9.q.e.w.e.0.= $.! , v.OX;XOXOXT.V.F.S.x.S 9 . <X<X<X<X",
"<X<X<X<X<X<X  q V.z.q ' }.[.D.D.f.7 ( 3.] 9.q.6.5.q.| ( #.Q 3 h.D.K.[.{.' 0 k.Z.q   <X<X<X<X<X<X",
"<X<X<X<X<X<X<X<X<X<X  0 z.S.S.S 6 1 k _ Q 9.q.5.5.6...j +.h - 1 A Z.S.k.8   <X<X<X<X<X<X<X<X<X<X",
"<X<X<X<X<X<X<X<X<X<X<X<X<X<X<X<X<X<X+ j b } <X<X<X<Xb $ j % <X<X<X<Xw > <X<X<X<X<X<X<X<X<X<X<X<X",
"<X<X<X<X<X<X<X<X<X<X<X<X<X<X<X<X<X<X<X<X<X<X<X<X<X<X<X<X<X<X<X<X<X<X<X<X<X<X<X<X<X<X<X<X<X<X<X<X",
"<X<X<X<X<X<X<X<X<X<X<X<X<X<X<X<X<X<X<X<X<X<X<X<X<X<X<X<X<X<X<X<X<X<X<X<X<X<X<X<X<X<X<X<X<X<X<X<X",
"<X<X<X<X<X<X<X<X<X<X<X<X<X<X<X<X<X<X<X<X<X<X<X<X<X<X<X<X<X<X<X<X<X<X<X<X<X<X<X<X<X<X<X<X<X<X<X<X",
"<X<X<X<X<X<X<X<X<X<X<X<X<X<X<X<X<X<X<X<X<X<X<X<X<X<X<X<X<X<X<X<X<X<X<X<X<X<X<X<X<X<X<X<X<X<X<X<X",
"<X<X<X<X<X<X<X<X<X<X<X<X<X<X<X<X<X<X<X<X<X<X<X<X<X<X<X<X<X<X<X<X<X<X<X<X<X<X<X<X<X<X<X<X<X<X<X<X",
"<X<X<X<X<X<X<X<X<X<X<X<X<X<X<X<X<X<X<X<X<X<X<X<X<X<X<X<X<X<X<X<X<X<X<X<X<X<X<X<X<X<X<X<X<X<X<X<X"
};
