/* XPM */
static char *result[] = {
/* columns rows colors chars-per-pixel */
"48 32 185 2 ",
"   c #151C2E",
".  c #1A1F2F",
"X  c #1B2334",
"o  c #252632",
"O  c #222C3B",
"+  c #2F2C36",
"@  c #332E37",
"#  c #2B353F",
"$  c #34343C",
"%  c #3A3339",
"&  c #453B3A",
"*  c #483F3D",
"=  c #55453E",
"-  c #5B493F",
";  c #293541",
":  c #2C3A45",
">  c #2D3E4A",
",  c #273745",
"<  c #323D44",
"1  c #333B43",
"2  c #3C4147",
"3  c #35454D",
"4  c #3C464A",
"5  c #3C494D",
"6  c #314550",
"7  c #364A53",
"8  c #3B4D53",
"9  c #384F58",
"0  c #3D5157",
"q  c #3C535B",
"w  c #37525C",
"e  c #3A5660",
"r  c #3D5A63",
"t  c #484140",
"y  c #5A4A43",
"u  c #4F584A",
"i  c #56594A",
"p  c #424F52",
"a  c #415256",
"s  c #42555A",
"d  c #43595D",
"f  c #4A5857",
"g  c #525A56",
"h  c #624E43",
"j  c #6A5445",
"k  c #685345",
"l  c #705647",
"z  c #785C4C",
"x  c #586559",
"c  c #6A674A",
"v  c #686352",
"b  c #6D6E5B",
"n  c #646958",
"m  c #6A7150",
"M  c #435C62",
"N  c #456166",
"B  c #4C6464",
"V  c #4A676A",
"C  c #4C696B",
"Z  c #46646C",
"A  c #526D6C",
"S  c #596964",
"D  c #5C736F",
"F  c #4B6E75",
"G  c #4D767B",
"H  c #4D7073",
"J  c #547375",
"K  c #5C7573",
"L  c #557679",
"P  c #557B7D",
"I  c #5B7C7C",
"U  c #597876",
"Y  c #616C63",
"T  c #6C7A6D",
"R  c #667063",
"E  c #7C7B63",
"W  c #657D73",
"Q  c #667F79",
"!  c #84644C",
"~  c #89664B",
"^  c #8D6B4D",
"/  c #946E4E",
"(  c #806950",
")  c #897953",
"_  c #9A7452",
"`  c #977250",
"'  c #A47A55",
"]  c #AC7D55",
"[  c #59807F",
"{  c #718D79",
"}  c #74947F",
"|  c #8A8557",
" . c #958F5E",
".. c #98945E",
"X. c #AA8057",
"o. c #AC8359",
"O. c #AA8B5E",
"+. c #B78A5A",
"@. c #B4A95B",
"#. c #A5B05B",
"$. c #85846A",
"%. c #8E986C",
"&. c #979A6A",
"*. c #879579",
"=. c #949675",
"-. c #A39C69",
";. c #BF9560",
":. c #A6A164",
">. c #B1A466",
",. c #A9B860",
"<. c #ABB978",
"1. c #C1B660",
"2. c #BDC076",
"3. c #DDD461",
"4. c #CBC37E",
"5. c #D9CC74",
"6. c #D0D068",
"7. c #4F7A80",
"8. c #5B7E83",
"9. c #567780",
"0. c #5B8384",
"q. c #578589",
"w. c #5C8789",
"e. c #5C8B8D",
"r. c #5D8F91",
"t. c #5E9091",
"y. c #648684",
"u. c #658B85",
"i. c #6D8981",
"p. c #628689",
"a. c #628C8C",
"s. c #69918D",
"d. c #789A8E",
"f. c #668F90",
"g. c #639394",
"h. c #6B9493",
"j. c #6A9997",
"k. c #649799",
"l. c #6A9698",
"z. c #659B9B",
"x. c #6B9C9C",
"c. c #679A97",
"v. c #719A95",
"b. c #749D9B",
"n. c #719795",
"m. c #6EA19D",
"M. c #7BA39C",
"N. c #729FA3",
"B. c #6DA3A2",
"V. c #74A3A6",
"C. c #75A8A4",
"Z. c #7AABA5",
"A. c #76A7A9",
"S. c #74AAAB",
"D. c #7BADAB",
"F. c #7BAEB1",
"G. c #7DB3B4",
"H. c #819581",
"J. c #929E83",
"K. c #94A782",
"L. c #9CB18C",
"P. c #86A893",
"I. c #8EB59F",
"U. c #8AA18A",
"Y. c #A9B48F",
"T. c #B3BC8B",
"R. c #82ADA4",
"E. c #81AEA9",
"W. c #8CB6AD",
"Q. c #8DB9AE",
"!. c #86B2A6",
"~. c #82B4B3",
"^. c #8CBBB5",
"/. c #82B7B8",
"(. c #86BCBC",
"). c #89BABA",
"_. c #93BEB4",
"`. c #B2C19D",
"'. c #8AC0BF",
"]. c #94C2BB",
"[. c #9AC7BD",
"{. c #CCD182",
"}. c #8CC2C3",
"|. c #9BCAC3",
" X c None",
/* pixels */
" X X X X X X X X X X X X X X X X X X X X X X X X X X X X X X X X X X X X X X X X X X X X X X X X",
" X X X X X X X X X X X X X X X X X X X X X, ; r M 6 O  X X X X X X X X X X X X X X X X X X X X X",
" X X X X X X X X X X X X X X X X X6 9.Z g.g.0.g.c.t.P U $.I 6  X X X X X X X X X X X X X X X X X",
" X X X X X X X X X X X X X X X X6 k./.v.Z.S.x.j.S.G.A.z.u./.g.3  X X X X X X X X X X X X X X X X",
" X X X X X X X X X X X X X Xe > d j._.T.K.S.z.g.G.(.G.J j.).j.d > w  X X X X X X X X X X X X X X",
" X X X X X X X X X X X Xr M i.n M 0.x.{ D N.B.B.x.c.A.[ *.M.0.q N e.N e  X X X X X X X X X X X X",
" X X X X X X X X X X XO M 7.*. .p./.x.M B A./.Z.K a.S.T 5.`.G.h.L 8.P M O  X X X X X X X X X X X",
" X X X X X X X X X X Xa d f i 2 0.^.D.M d c.B.D.s.0.z.S | K.G.a.8 4 p d a  X X X X X X X X X X X",
" X X X X X X X X X; 3 5 8.K. .g y.e.x.x.f.p.g.x.[ C B.g.h.f.e.P M N c.0.3 3 ;  X X X X X X X X X",
" X X X X X X X X Xd s 0 Z.!.%.{...a a.(.]._.I A M q h.W.Q.h.0 s e./.}.Z.8 8 d  X X X X X X X X X",
" X X X X X X X X# 5 : C g.S.<.6.) f 8.z.V.R.B 8.V.~.n.P x.i.x @.Y.D.A.c.C 1 m 1  X X X X X X X X",
" X X X X X X XX 7 < 8 8.0.q.g.x p s a.z.z.g.f 9.B.D.0.H W -.m 3.6.u.q.0.[ a n a X  X X X X X X X",
" X X X X X X X5 E x L (./.V.G.0.: H l.l.x.Q -.Q q.S.x.A.b.P.K c *.D.V./.).J 8 B 3  X X X X X X X",
" X X X X X X3 x 1.) k.G.}.|.].h.8 J F._._.R.P.A q l.F.S.B.z.J 7 s.].|.[.^.k.8 3 a 3  X X X X X X",
" X X X X X X# 4 u x r.z.B.Z.v.A 7 d e.Z.R.R.l.D f J z.z.z.q.d 8 A x.E.H.U.g.M > 3 #  X X X X X X",
" X X X X X X# ; N w.A.S.B.B.k.d $ z $.T H.=.R O.O.v ) $.S ) ) 1 d h.H.b <.b.w.x v 1  X X X X X X",
" X X X X X X# M J T J.Z.G.c.J B p _ ' h ] +.k o.' k o.' h X._ 4 N b 5.4.{ u.A R &.;  X X X X X X",
" X X X X XX N F.I.{.3.m *.K d M $ ! ~ - / / - / / - / ~ = / ~ # d g >.#.f J s.G.D.M X  X X X X X",
" X X X X X; w.S.s.,.@.y %.T E.y.3 % % @ o o . o o . o o + % % 3 y.W.Q.b.9 x.].^.S.0.;  X X X X X",
" X X X X X, t.m.z.c.W a 0.m.Z.a.d y z ! o             o j z h d a.Z.Z.s.0 H c.m.z.g.,  X X X X X",
" X X X X X3 k.G.S.A.T.c 7.z.z.g.M y ' ' %             % ] ' y Y n.x.g.-.:.p.A.S./.k.3  X X X X X",
" X X X XX V z.F.W.^.I.A k.F.S.0.w * _ ] &             & +.X.*  .L.S.g.| %.D.).W.D.x.V X  X X X X",
" X X X XO 0 G t.c.x.g.M.|.}.}.(.k.2 _ ;.-             - o._ < p.^.}.}.^.Z.g.x.c.t.G 0 O  X X X X",
" X X X X X XX w t.r.q i.^.E.x.j.0.8 ^ ;.h             h +.~ 8 0.x.x.D.Q.i.q e.k.w X  X X X X X X",
" X X X X X X X X X XX q t.z.z.G 7 3 z ] k      X    . k ] j ; 6 F k.z.e.9 X  X X X X X X X X X X",
" X X X X X X X X X X X X X X X X X X@ l l X    X X  . & l =  X X X Xe ,  X X X X X X X X X X X X",
" X X X X X X X X X X X X X X X X X X X X X X X X X X X X X X X X X X X X X X X X X X X X X X X X",
" X X X X X X X X X X X X X X X X X X X X X X X X X X X X X X X X X X X X X X X X X X X X X X X X",
" X X X X X X X X X X X X X X X X X X X X X X X X X X X X X X X X X X X X X X X X X X X X X X X X",
" X X X X X X X X X X X X X X X X X X X X X X X X X X X X X X X X X X X X X X X X X X X X X X X X",
" X X X X X X X X X X X X X X X X X X X X X X X X X X X X X X X X X X X X X X X X X X X X X X X X",
" X X X X X X X X X X X X X X X X X X X X X X X X X X X X X X X X X X X X X X X X X X X X X X X X"
};
