/* XPM */
static char *result[] = {
/* columns rows colors chars-per-pixel */
"47 48 160 2 ",
"   c #12172D",
".  c #151B2E",
"X  c #181E2F",
"o  c #1B212F",
"O  c #1C2431",
"+  c #212631",
"@  c #232C32",
"#  c #292E33",
"$  c #263134",
"%  c #2B3334",
"&  c #2F3934",
"*  c #293638",
"=  c #2B3A39",
"-  c #323636",
";  c #343A36",
":  c #3A3E38",
">  c #344035",
",  c #3B4637",
"<  c #3C4937",
"1  c #33463E",
"2  c #3E423A",
"3  c #36493F",
"4  c #3E4B38",
"5  c #42463A",
"6  c #404E38",
"7  c #494C3C",
"8  c #445239",
"9  c #4D503D",
"0  c #4B5A3B",
"q  c #52543E",
"w  c #525D3D",
"e  c #585E3F",
"r  c #53643D",
"t  c #56683E",
"y  c #5B6D3F",
"u  c #5F723F",
"i  c #3A4642",
"p  c #394E41",
"a  c #3C5142",
"s  c #405744",
"d  c #435B46",
"f  c #4B5E43",
"g  c #595A40",
"h  c #466148",
"j  c #4A664A",
"k  c #4D6A4C",
"l  c #526444",
"z  c #546942",
"x  c #5F6D40",
"c  c #506E4D",
"v  c #5F7340",
"b  c #53724F",
"n  c #5F7D4E",
"m  c #577952",
"M  c #5A7F54",
"N  c #636442",
"B  c #6A6D44",
"V  c #627540",
"C  c #6E7545",
"Z  c #667C41",
"A  c #6B7E43",
"S  c #60764D",
"D  c #617E4C",
"F  c #747447",
"G  c #797848",
"H  c #5F8456",
"J  c #6B8142",
"K  c #758C45",
"L  c #788E46",
"P  c #7D8049",
"I  c #7D9547",
"U  c #779148",
"Y  c #7F9048",
"T  c #7F9A4A",
"R  c #618655",
"E  c #698E57",
"W  c #668D58",
"Q  c #688F59",
"!  c #7F8A58",
"~  c #6A925B",
"^  c #6E985D",
"/  c #749652",
"(  c #719D5F",
")  c #789F59",
"_  c #7BA258",
"`  c #7FAB5F",
"'  c #7A9F67",
"]  c #71976F",
"[  c #749C6B",
"{  c #7C9B6F",
"}  c #648F74",
"|  c #669175",
" . c #6A9373",
".. c #739772",
"X. c #759870",
"o. c #789970",
"O. c #76A563",
"+. c #79A564",
"@. c #77A863",
"#. c #7AA963",
"$. c #84834B",
"%. c #908E4F",
"&. c #829748",
"*. c #8D974D",
"=. c #829D49",
"-. c #8D994C",
";. c #93904F",
":. c #858D56",
">. c #969350",
",. c #999751",
"<. c #9E9C53",
"1. c #A19E53",
"2. c #87A249",
"3. c #8AA34A",
"4. c #8DA94B",
"5. c #92AE4C",
"6. c #95B24D",
"7. c #99B64D",
"8. c #9BB94E",
"9. c #8DAF55",
"0. c #83AD5D",
"q. c #8BAE5A",
"w. c #9EAB50",
"e. c #95AD5F",
"r. c #8EB356",
"t. c #86B15E",
"y. c #8AB159",
"u. c #94B552",
"i. c #99B751",
"p. c #97B852",
"a. c #99B950",
"s. c #94B35A",
"d. c #9DB15F",
"f. c #A0BD4F",
"g. c #B3AE57",
"h. c #B3AF58",
"j. c #A4B554",
"k. c #A8B553",
"l. c #A3BA51",
"z. c #ABBA54",
"x. c #A5B45D",
"c. c #ACB55C",
"v. c #B3BA57",
"b. c #B4B45B",
"n. c #BAB65A",
"m. c #B6B959",
"M. c #BDBA5B",
"N. c #81A562",
"B. c #85AB62",
"V. c #89AC61",
"C. c #85A16A",
"Z. c #8BA26B",
"A. c #94AF60",
"S. c #9BA966",
"D. c #92A568",
"F. c #84B160",
"G. c #A4AE62",
"H. c #ADB261",
"J. c #C1BB5B",
"K. c None",
/* pixels */
"K.K.K.K.K.K.K.K.K.K.K.K.K.K.K.K.K.K.K.X . . X . K.K.K.K.K.K.K.K.K.K.K.K.K.K.K.K.K.K.K.K.K.K.K.",
"K.K.K.K.K.K.. . . K.K.K.K.K.K.K.K.K.K.. . . X . . K.K.K.K.K.K.K.K.K.K.K.K.. . K.K.K.K.K.K.K.K.",
"K.K.K.K.. . # # @ . K.X X . K.K.K.K.K.X O k W d X . K.      K.K.K.K.K.. . + # + . K.K.K.K.K.K.",
"K.K.K.K.. q g.b.<.; . . .   X . K..     s #.#.@.d . . 5 f #   . K.K.K.. + $.n.%.# . K.K.K.K.K.",
"K.K.K.K.o 1.J.J.J.F . & V t o X . > v @ = Q #.#.[ O 7 h.J.%.F 9 . K.K.o $.J.J.J.%.+ . K.K.K.K.",
"K.K.K.K.. ;.J.J.J.g.5 I f.8.2.8 + 2.a.=.d H #.#.4 9 h.J.J.J.J.h.q . + 5 h.J.M.M.M.- . K.K.K.K.",
"K.K.K.. . # <.J.v.v.A 5.8.8.f.0 % 7.8.a.q.A.A.x.G g.J.M.M.J.J.J.g.+ N M.J.M.J.J.M.- . K.K.K.K.",
"K.K.. X O . % -.8.8.8.8.8.8.8.U & A 8.v.m.z.M.M.J.M.J.M.J.J.J.J.F . B J.M.J.M.,.q O . K.K.K.K.",
"K.. : 1.1.7 + Z f.8.8.8.a.8.8.8.2.3.8.v.8.8.z.m.m.M.J.J.v.l.z.G # 9 w.f.m.M.9 # % - @ . K.K.K.",
"K.X ,.J.J.J.;.-.8.8.8.8.8.8.8.8.8.8.8.8.8.8.7.8.8.l.m.m.8.8.8.Y *.8.8.8.8.l.y Z 7.n.;.% . K.K.",
"K.. ,.J.J.M.m.l.8.8.8.a.7.8.8.8.8.8.8.8.8.8.a.8.8.8.l.l.8.8.8.z.l.8.8.a.8.8.f.f.8.m.J.q   K.K.",
"K.X $.v.l.8.&.4.r.` ` #.` r.a.u.u.a.8.8.8.7.l.l.8.8.8.8.8.8.8.8.8.8.8.8.8.8.&.=.f.l.5., . K.K.",
"K.X + y u r = ~ #.#.#.#.#.#.q.@.#.B.u.8.l.z.M.M.z.8.8.8.8.8.8.8.u.y.u.8.8.8.V t u u 4 X K.K.K.",
"K.K.. X o $ W #.#.#.#.#.#.#.@.O.@.@.d.z.m.J.J.J.J.m.v.k.t.0.u.r.#.@.` u.8.8.l.4.4 . . X K.K.K.",
"K.K.. r 4.5.r.0.u.a.u.u.` O.#.0.0.@.#.B.A.c.M.M.b.H.c.V.0.#.#.` u.u.` #.u.8.8.a._ @ . K.K.K.K.",
"K.. $ 6.8.8.8.8.8.8.8.8.q.#.r.8.u.y.y.q.y.r.z.z.s.y.y.y.8.r.y.u.8.8.r.y.r.8.a.t.@.d X K.X K.K.",
"K.K.# 4.l.8.8.8.8.8.8.f.u.u.8.a.8.u.u.i.i.8.8.i.u.7.8.u.0.u.8.7.a.q.` 0.a.8.a.#.#.~ o O O X K.",
"K.K.. , L 6.9.q.q.u.8.9.q.i.8.l.i.Z... . .B.7.+.| [ 0.+.#.#.q.#.#.O.@.@.` u.#.#.~ k @ U &.% X ",
"K.X . X . l } } } ] '  .| +.l.m.J.J.G.Z.|  .[ | Z.C. .@.#.@.#.#.@.#.O.#.#.#.#.W = O L 8.f.u   ",
"K.. ; ;.>.2 i :.G...o.G.Z.o.b.J.M.J.J.J.D.| | D.J.M.Z.{ c.A.O.0.u.` y.u.y.#.#._ U T 8.8.8.u   ",
"K.. ;.J.J.n.g.M.J.M.M.J.M.M.M.M.M.x.c.M.J.D.o.J.m.m.M.n.J.M.A.s.8.7.8.8.8.y.O.#.#.#.0.r.9.8 . ",
"K.. 1.J.J.M.M.x.e.x.M.J.M.M.M.M.e.#.+.e.M.m.G.m.8.8.m.M.M.M.J.m.z.8.8.8.8.q.#.#.#.s.x.S 1 X K.",
"K.X $.v.v.m.q.0.#.+.V.b.d.B.B.0.+.#.#.#.V.V.i.i.8.8.l.l.f.l.m.M.z.8.8.8.u.0.x.c.c.e ; o . K.K.",
"K.K.# U a.i.i.8.7.0.0.B.#.O.@.@.+.#.#.#.@.@.+.#.q.u.u.8.i.r.r.u.r.a.8.8.8.u.8.8.f.3.; X . K.K.",
"K.K.. # 0 2.8.8.8.8.8.7.r.r.0.@.#.@.#.@.#.#.@.@.O.O.` q.` O.#.@.#.u.8.8.8.8.7.8.8.8.u o X . . ",
"K.X . - - 0 7.8.a.u.u.r.` ` ` ` 0.u.a.` @.@.#.@.#.#.` ` ` 0.c.b.s.a.8.8.8.8.8.8.8.K & J K # . ",
"K.X e b.n.k.8.8.r.0.y.0.0.0.0.r.a.8.8.6.#.@.#.y.y.7.l.z.7.v.J.J.M.z.8.8.8.8.8.8.7.y J 8.8.u . ",
"K.X *.M.M.M.l.8.8.8.8.8.8.8.8.8.a.8.8.a.s.r.6.8.f.v.m.J.v.M.M.M.J.m.i.8.8.7.8.8.8.f.8.7.T & X ",
"K.. A f.f.f.f.8.8.8.7.8.7.8.8.7.8.8.a.8.8.8.8.7.x.c.b.c.c.b.V.B.G.M.m.M.m.l.l.l.a.T I 8 + K.K.",
"K.. + y y Z 8.8.8.8.8.8.8.8.8.8.8.8.8.8.8.8.7.0.#.@.0.y.#.@.@.O.#.d.x.d.d.d.x.d.B.d X X K.K.K.",
"K.K.K.. . Z 8.8.8.8.8.7.8.8.8.8.8.8.8.8.r.0.` ` ` s.u.8.y.#.#.#.#.@.@.O.#.@.@.@.#.~ @ X . K.K.",
"K.K.K.. . =.8.8.7.8.8.8.8.8.8.8.8.8.7.8.7.a.a.a.a.8.8.8.a.a.u.#.@.#.0.0.` #.@.#.@.0.4.r . K.K.",
"K.K.K.. 4 5.8.8.8.8.8.8.8.0.N.N.B.i.8.i.N.N.N.e.8.8.8.8.z.z.l.y.#.r.8.8.u.0.q.y.y.a.8.6.# . K.",
"K.K.. 6 5.8.8.8.8.8.8.q.[ ....| | N.u.[  . . ...9.8.8.v.J.J.v.s.#.u.8.8.8.7.a.6.4.8.f.4.@ . K.",
"K.. 5 5.8.7.q.u.7.q.q. ...H.n.S.o.|  .| S.n.n.S.C.9.z.J.J.M.M.M.d.r.8.8.8.8.8.&.; u K 2 . K.K.",
"K.. T 8.7.u. .[ ' | } | D.J.M.J.M.S.o.S.J.M.J.J.n.G.m.J.M.J.M.J.M.i.8.7.7.l.v.m.%.t X . K.K.K.",
"K.o T 8.8.l  .| | Z.G.o.X.H.J.J.M.J.b.M.M.M.J.J.M.J.J.M.J.J.J.M.M.m.z.7.8.z.M.M.M.M.C o . K.K.",
"K.. u 8.I ; ! Z.D.M.J.M.G.H.M.J.J.M.J.J.J.M.m.z.m.M.M.M.b.H.M.M.J.J.m.k.f.8.8.8.8.8.7.6   K.K.",
"K.X o 0 %   - N g.J.M.M.J.J.J.G.A.A.b.J.M.v.8.8.i.v.M.n.V.#.A.M.J.J.J.J.m.l.8.8.8.8.8.6   K.K.",
"K.K.K.. X . e <.n.v.l.a.c.b.c.+.O.O.B.i.z.f.a.8.a.u.r.B.#.#.F.M.m.m.m.z.l.8.8.8.5.3.C O . K.K.",
"K.K.K.. X 0 z.J.m.8.r.#.#._ H @.@.#.B.a.8.8.8.6.` #.#.@.#.H n 8.8.8.8.8.8.8.7.f.w . . X K.K.K.",
"K.K.K.. a 6.f.l.m.K E #.#.^ a #.#.#.t./ n u.7.H Q #.#.y.y.H $ A 8.8.8.5.Z 8.z.m.;.# . K.K.K.K.",
"K.K.K.. b F.s.u.u.k k #.#.H O j @.#.Q = j ` ` h k #.y.8.8.u.$ 6 7.f.f.I 6 8.f.l.l.L o K.K.K.K.",
"K.K.K.. 3 O.@.@.#.k o j c *   o j @.a * 0.0.t.j O m y.8.8.6.% . 0 V u % < 8.8.8.f.2.o K.K.K.K.",
"K.K.K.K.. a [ _ Q * . .   . K.. O 3 # J 8.8.a.z . O n 5.6.u o . . .     , 7.a.f.6.8 X K.K.K.K.",
"K.K.K.K.. . O $ O . K.K.K.K.K.K.K.K.o K f.a.7.0 . . O @ # o . K.K.K.K.. O r T I 8 . . K.K.K.K.",
"K.K.K.K.K.K.. . . K.K.K.K.K.K.K.K.K.. @ u u 0 X . K..   . . K.K.K.K.K.K.K.X . . . X K.K.K.K.K.",
"K.K.K.K.K.K.K.K.K.K.K.K.K.K.K.K.K.K.K..     X . K.K.K.K.K.K.K.K.K.K.K.K.K.K.K.K.K.K.K.K.K.K.K."
};
