/* XPM */
static char *result[] = {
/* columns rows colors chars-per-pixel */
"48 46 226 2 ",
"   c #161C2E",
".  c #161C2F",
"X  c #171D30",
"o  c #181D30",
"O  c #191E31",
"+  c #1A1F30",
"@  c #1A1F32",
"#  c #1B1F32",
"$  c #1B2033",
"%  c #1D2231",
"&  c #1C2034",
"*  c #1C2134",
"=  c #1D2035",
"-  c #1F2536",
";  c #212433",
":  c #202237",
">  c #252735",
",  c #262935",
"<  c #262836",
"1  c #282937",
"2  c #2B2C37",
"3  c #202338",
"4  c #212239",
"5  c #25273A",
"6  c #23233C",
"7  c #24263C",
"8  c #25273D",
"9  c #25253E",
"0  c #292A38",
"q  c #2E2D39",
"w  c #292E3C",
"e  c #2C2E3E",
"r  c #302F3F",
"t  c #2E303B",
"y  c #31313A",
"u  c #3E3C3F",
"i  c #292742",
"p  c #2B2B41",
"a  c #2A2843",
"s  c #2D2A40",
"d  c #2C2C42",
"f  c #2E2A45",
"g  c #2C2C44",
"h  c #312B4B",
"j  c #332D4C",
"k  c #322C4D",
"l  c #343243",
"z  c #3C3E45",
"x  c #3C3F46",
"c  c #34304F",
"v  c #36304E",
"b  c #37344F",
"n  c #393351",
"m  c #393252",
"M  c #393054",
"N  c #3E3659",
"B  c #403B42",
"V  c #413E40",
"C  c #413F41",
"Z  c #433D43",
"A  c #483B56",
"S  c #41365D",
"D  c #42375C",
"F  c #433B5B",
"G  c #443B5D",
"H  c #4B3B58",
"J  c #4C3A5C",
"K  c #4D3E5E",
"L  c #483C63",
"P  c #4E3E63",
"I  c #4A3C65",
"U  c #4D3E69",
"Y  c #4E3E69",
"T  c #4E3E6A",
"R  c #503F65",
"E  c #434042",
"W  c #444241",
"Q  c #4B4547",
"!  c #474149",
"~  c #4E4748",
"^  c #4D4A49",
"/  c #51494D",
"(  c #524B4C",
")  c #564E4E",
"_  c #4F514F",
"`  c #54514F",
"'  c #5C504F",
"]  c #5F544F",
"[  c #534A50",
"{  c #554C50",
"}  c #524459",
"|  c #565354",
" . c #565555",
".. c #565954",
"X. c #505358",
"o. c #605B53",
"O. c #675C52",
"+. c #685A55",
"@. c #6C5F5A",
"#. c #666056",
"$. c #6A6054",
"%. c #6B6256",
"&. c #6D6254",
"*. c #676158",
"=. c #65645D",
"-. c #68625E",
";. c #74655A",
":. c #7C705E",
">. c #7E715E",
",. c #55406A",
"<. c #5D4568",
"1. c #5C5C62",
"2. c #574472",
"3. c #5D4470",
"4. c #5F4772",
"5. c #584374",
"6. c #5C4578",
"7. c #5C4678",
"8. c #5F4679",
"9. c #5C457B",
"0. c #5E457B",
"q. c #6E5C64",
"w. c #6D4F73",
"e. c #705076",
"r. c #765377",
"t. c #745379",
"y. c #78557B",
"u. c #656465",
"i. c #6E6B60",
"p. c #6E6C6C",
"a. c #7A646F",
"s. c #7D7664",
"d. c #776171",
"f. c #747370",
"g. c #71717C",
"h. c #84735F",
"j. c #827060",
"k. c #8C7664",
"l. c #8F7E64",
"z. c #877F6E",
"x. c #947C68",
"c. c #967D69",
"v. c #837973",
"b. c #86816D",
"n. c #97876C",
"m. c #9B8669",
"M. c #9E876B",
"N. c #9C987D",
"B. c #A28C6C",
"V. c #A48D6C",
"C. c #A58E6D",
"Z. c #AB8F72",
"A. c #AA9072",
"S. c #AE9173",
"D. c #AC9272",
"F. c #AD9571",
"G. c #A99075",
"H. c #A69D7C",
"J. c #A89978",
"K. c #BDA47A",
"L. c #C5AA7D",
"P. c #CAAC7F",
"I. c #CCAD7F",
"U. c #6D4D89",
"Y. c #6E4D8C",
"T. c #6F4E8E",
"R. c #6F4E8F",
"E. c #725190",
"W. c #895F89",
"Q. c #8F6289",
"!. c #817E85",
"~. c #977985",
"^. c #896293",
"/. c #8C6793",
"(. c #966691",
"). c #986896",
"_. c #966698",
"`. c #9C6998",
"'. c #977298",
"]. c #997199",
"[. c #A17997",
"{. c #97928E",
"}. c #9E9D94",
"|. c #A5828F",
" X c #A59D84",
".X c #B89692",
"XX c #B1A583",
"oX c #B6A683",
"OX c #B5A586",
"+X c #B9AB87",
"@X c #B8AF8C",
"#X c #BEAF90",
"$X c #B6AD99",
"%X c #BDB7A5",
"&X c #C7A685",
"*X c #C0B08F",
"=X c #D6B684",
"-X c #D9BA86",
";X c #DABE89",
":X c #D9BD8B",
">X c #D9BD8D",
",X c #D1B694",
"<X c #D8C08F",
"1X c #DBC18E",
"2X c #DFC38F",
"3X c #DAC397",
"4X c #D7C19D",
"5X c #DDCD9F",
"6X c #E4CF9B",
"7X c #D0C2A2",
"8X c #C7C0B0",
"9X c #D8CDB9",
"0X c #DBD5BE",
"qX c #EDDDA8",
"wX c #F0DFAB",
"eX c #E0D6B0",
"rX c #E7DABA",
"tX c #E5DDBC",
"yX c #EFE3B2",
"uX c #F3E7B8",
"iX c #F2E7BC",
"pX c #DBD7C4",
"aX c #E3DDC5",
"sX c #F2E7C6",
"dX c #F4EBD0",
"fX c None",
/* pixels */
"fXfXfXfXfXfXfXfXfXfXfXfXfXfXfXfXfXfXfXfXfXfXfXfXfXfXfXfXfXfXfXfXfXfXfXfXfXfXfXfXfXfXfXfXfXfXfXfX",
"fXfXfXfXfXfXfXfXfXfXfXfXfXfXfXfXfXfXfXfXfXfXfXfXfXfXfXfXfXfXfXfXfXfXfXfXfXfXfXfXfXfXfXfXfXfXfXfX",
"fXfXfXfXfXfXfXfXfXfXfXfXfXfXfXfXfXfXfXfXfXfXfXfXfXfXfXfXfXfXfXfXfXfXfXfXfXfXfXfXfXfXfXfXfXfXfXfX",
"fXfXfXfXfXfXfXfXfXfXfXfXfXfXfXfXfXfXfXfXfXfXfXfXfXfXfXfXfXfXfXfXfXfXfXfXfXfXfXfXfXfXfXfXfXfXfXfX",
"fXfXfXfXfXfXfXfXfXfXfXfXfXfXfXfXfXfXfXfXfXfXfXfXfXfXfXfXfXfXfXfXfXfXfXfXfXfXfXfXfXfXfXfXfXfXfXfX",
"fXfXfXfXfXfXfXfXfXfXfXfXfXfXfXfXfXfXfXfXfXfXfXfXfXfXfXfXfXfXfXfXfXfXfXfXfXfXfXfXfXfXfXfXfXfXfXfX",
"fXfXfXfXfXfXfXfXfXfXfXfXfXfXfXfXfXfXfXfXfXfXfXfXfXfXfXfXfXfXfXfXfXfXfXfXfXfXfXfXfXfXfXfXfXfXfXfX",
"fXfXfXfXfXfXfXfXfXfXfXfXfXfXfXfXfXfXfXfXfXfXfXfXfXfXfXfXfXfXfXfXfXfXfXfXfXfXfXfXfXfXfXfXfXfXfXfX",
"fXfXfXfXfXfXfXfXfXfXfXfXfXfXfXfXfXfXfXfXfXfXfXfXfXfXfXfXfXfXfXfXfXfXfXfXfXfXfXfXfXfXfXfXfXfXfXfX",
"fXfXfXfXfXfXfXfXfXfXfXfXfXfXfXfXfXfXfXfXfXfXfXfXfXfXfXfXfXfXfXfXfXfXfXfXfXfXfXfXfXfXfXfXfXfXfXfX",
"fXfXfXfXfXfXfXfXfXfXfXfXfXfXfXfXfXfXfX6 ,.H fXfXfXfXfXfXfXfXfXfXfXfXfXfXfXfXfXfXfXfXfXfXfXfXfXfX",
"fXfXfXfXfXfXfXfXfXfXfXfXfXfXfXfXfXfXa 8._.).W.w.fXfXfXfXfXfXfXfXfXfXfXfXfXfXfXfXfXfXfXfXfXfXfXfX",
"fXfXfXfXfXfXfXfXfXfXfXfXfXfXfXfXfX& Y U.t.Q.`.(.<.fXfXfXfXfXfXfXfXfXfXfXfXfXfXfXfXfXfXfXfXfXfXfX",
"fXfXfXfXfXfXfXfXfXfXfXfXfXfXfXfXfX7 7.I g s r.y.e.fXfXfXfXfXfXfXfXfXfXfXfXfXfXfXfXfXfXfXfXfXfXfX",
"fXfXfXfXfXfXfXfXfXfXfXfXfXfXfXfXfXfXm G b * f 4.R fXfXfXfXfXfXfXfXfXfXfXfXfXfXfXfXfXfXfXfXfXfXfX",
"fXfXfXfXfXfXfXfXfXfXfXfXfXfXfXfXfXfXfX$ # fX4 M v fXfXfXfXfXfXfXfXfXfXfXfXfXfXfXfXfXfXfXfXfXfXfX",
"fXfXfXfXfXfXfXfXfXfXfXfXfXfXfXfXfXfXfXfXt v.!.g.{.p.fXfXfXfXfXfXfXfXfXfXfXfXfXfXfXfXfXfXfXfXfXfX",
"fXfXfXfXfXfXfXfXfXfXfXfXfXfXfXfXfXfXfX+ ' OXiXsXdX7X%.fXfXfXfXfXfX9Xu.fXfXfXfXfXfXfXfXfXfXfXfXfX",
"fXfXfXfXfXfXfXfXfXfXfXfXfXfXfXfXfXfXfXq c.:XqXuXaX$X+XfXfXfXfXfX8X0X_ fXfXfXfXfXfXfXfXfXfXfXfXfX",
"fXfXfXfXfXfXfXfXfXfXfXfXfXfXfXfXfXfXfXZ S.=X2XwXpX| *X .fXfXfXf.rXoXfXfXfXfXfXfXfXfXfXfXfXfXfXfX",
"fXfXfXfXfXfXfXfXfXfXfXfXfXfXfXfXu fXfXB Z.I.F.XX}.w *.x fXfXfXN.<X$.fXfXfXfXfXfXfXfXfXfXfXfXfXfX",
"fXfXfXfXfXfXfXfXfXfXfXfXfXfXfX= / &.% > x.P.J.i.X.- ` =.fXfX..H.B.fXfXfXfXfXfXfXfXfXfXfXfXfXfXfX",
"fXfXfXfXfXfXfXfXfXfXfXfXfXfXfXh 0.d.;.E +.A.-X6XtX1.#X XfXfXb.n.O.fXfXfXfXfXfXfXfXfXfXfXfXfXfXfX",
"fXfXfXfXfXfXfXfXfXfXfXfXfXfXfXk T./.G.>.s.#.C.1XyX%X5X-.J [ :.h.fXfXfXfXfXfXfXfXfXfXfXfXfXfXfXfX",
"fXfXfXfXfXfXfXfXfXfXfXfXfXfXfXj Y.].3XL.:.^ < o.@XeXz.A 3.{ ] ~ fXfXfXfXfXfXfXfXfXfXfXfXfXfXfXfX",
"fXfXfXfXfXfXfXfXfXfXfXfXfXfXfX! ~.'.,X;XM.( S c e z F n P D l p i fXfXfXfXfXfXfXfXfXfXfXfXfXfXfX",
"fXfXfXfXfXfXfXfXfXfXfXfXfXfXfXV K.4X.X&XD.) 9.E.2.L U r k.@.d 8 fXfXfXfXfXfXfXfXfXfXfXfXfXfXfXfX",
"fXfXfXfXfXfXfXfXfXfXfXfXfXfXfXfXl.>X[.^.q.Q N 5.6.T 9 ; j.m.y fXfXfXfXfXfXfXfXfXfXfXfXfXfXfXfXfX",
"fXfXfXfXfXfXfXfXfXfXfXfXfXfXfXfXC V.|.R.} 2 X @ O o fX3 5 , fXfXfXfXfXfXfXfXfXfXfXfXfXfXfXfXfXfX",
"fXfXfXfXfXfXfXfXfXfXfXfXfXfXfXfXfXW a.K 0     fX    fXfXfXfXfXfXfXfXfXfXfXfXfXfXfXfXfXfXfXfXfXfX",
"fXfXfXfXfXfXfXfXfXfXfXfXfXfXfXfXfXfX: 1 fXfX. fX. fXfXfXfXfXfXfXfXfXfXfXfXfXfXfXfXfXfXfXfXfXfXfX",
"fXfXfXfXfXfXfXfXfXfXfXfXfXfXfXfXfXfXfXfXfXfXfXfXfXfXfXfXfXfXfXfXfXfXfXfXfXfXfXfXfXfXfXfXfXfXfXfX",
"fXfXfXfXfXfXfXfXfXfXfXfXfXfXfXfXfXfXfXfXfXfXfXfXfXfXfXfXfXfXfXfXfXfXfXfXfXfXfXfXfXfXfXfXfXfXfXfX",
"fXfXfXfXfXfXfXfXfXfXfXfXfXfXfXfXfXfXfXfXfXfXfXfXfXfXfXfXfXfXfXfXfXfXfXfXfXfXfXfXfXfXfXfXfXfXfXfX",
"fXfXfXfXfXfXfXfXfXfXfXfXfXfXfXfXfXfXfXfXfXfXfXfXfXfXfXfXfXfXfXfXfXfXfXfXfXfXfXfXfXfXfXfXfXfXfXfX",
"fXfXfXfXfXfXfXfXfXfXfXfXfXfXfXfXfXfXfXfXfXfXfXfXfXfXfXfXfXfXfXfXfXfXfXfXfXfXfXfXfXfXfXfXfXfXfXfX",
"fXfXfXfXfXfXfXfXfXfXfXfXfXfXfXfXfXfXfXfXfXfXfXfXfXfXfXfXfXfXfXfXfXfXfXfXfXfXfXfXfXfXfXfXfXfXfXfX",
"fXfXfXfXfXfXfXfXfXfXfXfXfXfXfXfXfXfXfXfXfXfXfXfXfXfXfXfXfXfXfXfXfXfXfXfXfXfXfXfXfXfXfXfXfXfXfXfX",
"fXfXfXfXfXfXfXfXfXfXfXfXfXfXfXfXfXfXfXfXfXfXfXfXfXfXfXfXfXfXfXfXfXfXfXfXfXfXfXfXfXfXfXfXfXfXfXfX",
"fXfXfXfXfXfXfXfXfXfXfXfXfXfXfXfXfXfXfXfXfXfXfXfXfXfXfXfXfXfXfXfXfXfXfXfXfXfXfXfXfXfXfXfXfXfXfXfX",
"fXfXfXfXfXfXfXfXfXfXfXfXfXfXfXfXfXfXfXfXfXfXfXfXfXfXfXfXfXfXfXfXfXfXfXfXfXfXfXfXfXfXfXfXfXfXfXfX",
"fXfXfXfXfXfXfXfXfXfXfXfXfXfXfXfXfXfXfXfXfXfXfXfXfXfXfXfXfXfXfXfXfXfXfXfXfXfXfXfXfXfXfXfXfXfXfXfX",
"fXfXfXfXfXfXfXfXfXfXfXfXfXfXfXfXfXfXfXfXfXfXfXfXfXfXfXfXfXfXfXfXfXfXfXfXfXfXfXfXfXfXfXfXfXfXfXfX",
"fXfXfXfXfXfXfXfXfXfXfXfXfXfXfXfXfXfXfXfXfXfXfXfXfXfXfXfXfXfXfXfXfXfXfXfXfXfXfXfXfXfXfXfXfXfXfXfX",
"fXfXfXfXfXfXfXfXfXfXfXfXfXfXfXfXfXfXfXfXfXfXfXfXfXfXfXfXfXfXfXfXfXfXfXfXfXfXfXfXfXfXfXfXfXfXfXfX",
"fXfXfXfXfXfXfXfXfXfXfXfXfXfXfXfXfXfXfXfXfXfXfXfXfXfXfXfXfXfXfXfXfXfXfXfXfXfXfXfXfXfXfXfXfXfXfXfX"
};
