/* XPM */
static char * player_exit_xpm[] = {
"32 32 35 1",
" 	c #40342D",
".	c #221C1A",
"+	c #5A4E44",
"@	c #796755",
"#	c #423934",
"$	c #7A7290",
"%	c #58526A",
"&	c #413D4F",
"*	c #2C2116",
"=	c #766047",
"-	c #836B52",
";	c #634E38",
">	c #78624B",
",	c #67594B",
"'	c #796858",
")	c #4C3928",
"!	c #523F2C",
"~	c #130806",
"{	c #BC74C4",
"]	c #A13A8B",
"^	c #999088",
"/	c #AEA59D",
"(	c #B0AAA2",
"_	c #704A2D",
":	c #766D66",
"<	c #81776F",
"[	c #5F1347",
"}	c #3E2D1E",
"|	c #D0ADE0",
"1	c #360404",
"2	c #B9B9B9",
"3	c #727272",
"4	c #606060",
"5	c #AAA098",
"6	c #66513D",
"    ..++++++@@##............    ",
"....##+$$$$$$$$$$$$$$$$$$+@@....",
"....#$$%%%%%%%%%%%%%%%%%%$$@....",
"++@@$%%%%%%%%%%%%%%%%%%%%%%$..++",
"++@$%%%%%%%%%%%%%%%%%%%%%%%%$.++",
"++$%%%%&&&&&&&&&&&&&&&&&&%%%%$++",
"+$%%%%&&****************&&%%%%$+",
"$%%%%&&**=-*;-*=>*,'*''**&&%%%%$",
"$%%%&&*)*);*))*;)*);**;*=*&&%%%$",
"$%%%&*)!*~~~~)*;~~~~;*)*))*&%%%$",
"$%%%&*)!~~{{]~~~]{{]~*)*!)*&%%%$",
"$%%%&^/(~{_~{]]]{_~{]~^^//^&%%%$",
"$%%%&:<~]{~~{{{{{~~{{]~:<<:&%%%$",
"$%%%&*~[{{{{{{{{{{{{{{~*}}*&%%%$",
"$%%%&~~{{]{]{{{{{{||{{]1)!*&%%%$",
"$%%%&~]{{{{{{{{{]{||{{]~)!*&%%%$",
"$%%%&~[]]]]]]][[]{{{{{]~)!*&%%%$",
"$%%%&~]{{{{{{{{{]{{{{{]~;!*&%%%$",
"$%%%&~~]{{{{{{{{{{{{{]]~2!*&%%%$",
"$%%%&*~~]{{{{{{{{{{{]][~3!*&%%%$",
"$%%%&*;!~]]{{{{{{{{]][~~~4*&%%%$",
"$%%%&*;!~~~[]]]]]]][~~~[[~2&%%%$",
"$%%%&*;~{]~~[[~~~[[[[[[]]]~&%%%$",
"$%%%&*~{{]~][[[[[[[]~[]{{]~&%%%$",
"$%%%&*~]][~{~[]][[~{~~]{{]]~%%%$",
"$%%%&*~~[[~{~[[]][~{~~]]]][~%%%$",
"$%%%&*)~~~~{~[[[[[~{~1~]][~~%%%$",
"$%%%&^5~[[~{~~[[[[~{~1~[[~~&%%%$",
"$%%%&:~[][~{~~~~~~~{~1~][]~&%%%$",
"$%%%&*~~~~{]]~*}}~{]]~~~~~*&%%%$",
"$%%%&*))**~{~)*))*~{~))*))*&%%%$",
"$%%%&*))6*)~6)*);*)~*))*))*&%%%$"};
