/* XPM */
static char *_3f16662fc2641a6eaf1cab51583a5f6KPjkGFSKbZ1Ty2wh[] = {
/* columns rows colors chars-per-pixel */
"32 32 6 1 ",
"  c None",
". c #111010",
"X c #221C1A",
"o c #423934",
"O c #5A4E44",
"+ c #796755",
/* pixels */
"    XXOOOOOO++ooXXXXXXXXXXXX    ",
"XXXXooOOOO++ooXXooOOOOOOOO++XXXX",
"XXXXooOOOO++ooXXooOOOOOOOO++XXXX",
"OO++XXooooooXXXXooOOOOOOOO++XXOO",
"OO++XXooooooXXXXooOOOOOOOO++XXOO",
"OOOOooXXooXXooXXooOOOOOOOO++XXOO",
"OOOOooXXooXXooXXooOOOOOOOO++XXOO",
"OOOOooooXXooooXXXXooOOOOOO++XXOO",
"OOOOooooXXooooXXXXooOOOOOO++XXOO",
"OOOO++XXOOOOOOOOooXXooooXXXXXXOO",
"OOOO++XXOOOOOOOOooXXooooXXXXXXOO",
"OO++XXooOOOOOO++OOooXXXXooooXXOO",
"OO++XXooOOOOOO++OOooXXXXooooXXOO",
"++XXooXXooOO++ooooooXXooooOOoooo",
"++XXooXXooOO++ooooooXXooooOOoooo",
"XXooooooXXooXXXXXXXXooooOOOOooXX",
"XXooooooXXooXXXXXXXXooooOOOOooXX",
"ooooOOOO++XXooooooXXooOOOO++ooXX",
"ooooOOOO++XXooooooXXooOOOO++ooXX",
"ooOOOO++XXooOOooXXooooOOOO++ooXX",
"ooOOOO++XXooOOooXXooooOOOO++ooXX",
"OOOO++XXooOOOO++XXooOOOO++++ooXX",
"OOOO++XXooOOOO++XXooOOOO++++ooXX",
"OOOO++XXooOOOO++XXooOO++++ooooXX",
"OOOO++XXooOOOO++XXooOO++++ooooXX",
"XXXXXXooXXoo++ooooXXooooooooooOO",
"XXXXXXooXXoo++ooooXXooooooooooOO",
"ooXXXXXXXX++ooooooXX++XXXXXXXXXX",
"ooXXXXXXXX++ooooooXX++XXXXXXXXXX",
"XX++++OOooXX++OOOOXXXX..........",
"XX++++OOooXX++OOOOXXXX..........",
"++++OOOOooXX++OOXX.............."
};
