/* XPM */
static char *result[] = {
/* columns rows colors chars-per-pixel */
"39 48 143 2 ",
"   c #171F30",
".  c #172333",
"X  c #182635",
"o  c #1A2937",
"O  c #1B263A",
"+  c #1A2B3B",
"@  c #1F3134",
"#  c #1A313E",
"$  c #1D3A3D",
"%  c #212A37",
"&  c #2E2A36",
"*  c #2B2E3A",
"=  c #302D37",
"-  c #343E38",
";  c #41373D",
":  c #473B3F",
">  c #483C3F",
",  c #2A4138",
"<  c #4E403F",
"1  c #1E2E42",
"2  c #1C3542",
"3  c #1C3A45",
"4  c #1D3E49",
"5  c #223446",
"6  c #213449",
"7  c #223A4D",
"8  c #3A3941",
"9  c #253E53",
"0  c #1E444C",
"q  c #1F4A52",
"w  c #214B43",
"e  c #27414F",
"r  c #2B4148",
"t  c #265346",
"y  c #22554B",
"u  c #285349",
"i  c #2B584A",
"p  c #335D40",
"a  c #244253",
"s  c #214A53",
"d  c #27465A",
"f  c #29455B",
"g  c #254D5A",
"h  c #294B5E",
"j  c #215254",
"k  c #235956",
"l  c #23545B",
"z  c #235A5D",
"x  c #27654F",
"c  c #306648",
"v  c #256554",
"b  c #266B55",
"n  c #296E54",
"m  c #25655D",
"M  c #266A5D",
"N  c #286D5B",
"B  c #326F57",
"V  c #27715B",
"C  c #2B7358",
"Z  c #2C7F5F",
"A  c #3A7B51",
"S  c #2A4D60",
"D  c #275561",
"F  c #295463",
"G  c #255D62",
"H  c #295C66",
"J  c #256265",
"K  c #2B6463",
"L  c #266B63",
"P  c #2C6C65",
"I  c #276569",
"U  c #28646A",
"Y  c #276C6D",
"T  c #286B6B",
"R  c #277264",
"E  c #2B7664",
"W  c #2A7B65",
"Q  c #27716F",
"!  c #29756D",
"~  c #297B6C",
"^  c #494545",
"/  c #514242",
"(  c #5E4945",
")  c #634D46",
"_  c #6C5249",
"`  c #725749",
"'  c #74584B",
"]  c #406342",
"[  c #4B6543",
"{  c #4D754A",
"}  c #577C49",
"|  c #378154",
" . c #398455",
".. c #3D925B",
"X. c #3E985E",
"o. c #2E8164",
"O. c #2C8A64",
"+. c #2C846B",
"@. c #2D8B6B",
"#. c #348B64",
"$. c #328A6A",
"%. c #2E9067",
"&. c #2F946A",
"*. c #369567",
"=. c #3C9465",
"-. c #379B67",
";. c #3A9D65",
":. c #329569",
">. c #339969",
",. c #3EA164",
"<. c #498E4E",
"1. c #469555",
"2. c #469C5D",
"3. c #7D8F4F",
"4. c #6C904F",
"5. c #4CAB5E",
"6. c #50A256",
"7. c #55A359",
"8. c #51AE5C",
"9. c #54B25B",
"0. c #5AB65A",
"q. c #7EA755",
"w. c #62B85B",
"e. c #6DBD5B",
"r. c #76BF5C",
"t. c #7EBB5B",
"y. c #449D62",
"u. c #44A562",
"i. c #47A861",
"p. c #49A960",
"a. c #76C05C",
"s. c #7EC25D",
"d. c #859951",
"f. c #94AA56",
"g. c #90B559",
"h. c #8BC65E",
"j. c #90C85E",
"k. c #A2CF61",
"l. c #ACCD60",
"z. c #B0CB60",
"x. c #B8D763",
"c. c #BFDB64",
"v. c None",
/* pixels */
"v.v.v.v.v.v.v.v.v.v.v.v.v.v.v.v.v.v.v.v.v.v.v.v.v.v.v.v.v.v.v.v.v.v.v.v.v.v.v.",
"v.v.v.v.v.v.v.v.v.v.v.v.v.v.v.v.v.v.v.v.v.v.v.v.v.v.v.v.v.v.v.v.v.v.v.v.v.v.v.",
"v.v.v.v.v.v.v.v.v.v.v.v.v.v.v.v.v.v.v.v.- v.v.v.v.v.v.v.v.v.v.v.v.v.v.v.v.v.v.",
"v.v.v.v.v.v.v.v.v.v.v.v.v.v.v.v.v.v.v.v.d.v.v.v.v.v.v.v.v.v.v.v.v.v.v.v.v.v.v.",
"v.v.v.v.v.v.v.v.v.v.v.v.v.v.v.v.v.v.v.3.z.[ v.v.v.v.v.v.v.v.v.v.v.v.v.v.v.v.v.",
"v.v.v.v.v.v.v.v.v.v.v.v.v.v.v.v.v.v.v.f.c.4.v.v.v.v.v.v.v.v.v.v.v.v.v.v.v.v.v.",
"v.v.v.v.v.v.v.v.v.v.v.v.v.v.v.v.v.v.} l.x.g., v.v.v.v.v.v.v.v.v.v.v.v.v.v.v.v.",
"v.v.v.v.v.v.v.v.v.v.v.v.v.v.v.v.v.v.q.k.j.h.{ v.v.v.v.v.v.v.v.v.v.v.v.v.v.v.v.",
"v.v.v.v.v.v.v.v.v.v.v.v.v.v.v.v.v.] t.a.s.w.7.0 v.v.v.v.v.v.v.v.v.v.v.v.v.v.v.",
"v.v.v.v.v.v.v.v.v.v.v.v.v.v.v.v.v.<.0.w.a.5.9. .v.v.v.v.v.v.v.v.v.v.v.v.v.v.v.",
"v.v.v.v.v.v.v.v.v.v.v.v.v.v.v.v.c 8.5.0.e.9. ...n v.v.v.v.v.v.v.v.v.v.v.v.v.v.",
"v.v.v.v.v.v.v.v.v.v.v.v.v.v.v.v X. .1.9.9.9.2.y b y v.v.v.v.v.v.v.v.v.v.v.v.v.",
"v.v.v.v.v.v.v.v.v.v.v.v.v.v.$ x t u 2.y.u.,.u.E # v.v.v.v.v.v.v.v.v.v.v.v.v.v.",
"v.v.v.v.v.v.v.v.v.v.v.v.v.v.v.v.3 #.$.$.u.&.>.&.j v.v.v.v.v.v.v.v.v.v.v.v.v.v.",
"v.v.v.v.v.v.v.v.v.v.v.v.v.v.v.2 R >.&.&.;.:.&.&.W # v.v.v.v.v.v.v.v.v.v.v.v.v.",
"v.v.v.v.v.v.v.v.v.v.v.v.v.v.v.m ;.u.&.-.-.>.+.>.>.j # v.v.v.v.v.v.v.v.v.v.v.v.",
"v.v.v.v.v.v.v.v.v.v.v.v.v.0 L ;.5.X.-.i.p.p.y.y.i.#.j q v.v.v.v.v.v.v.v.v.v.v.",
"v.v.v.v.v.v.v.v.v.v.v.v.2 s B 8.A o.5.9.0.8.0.u.p.u.C # v.v.v.v.v.v.v.v.v.v.v.",
"v.v.v.v.v.v.v.v.v.v.v.v.v.@ , c R -.9.5.8.u.y.8.;.-.$.q v.v.v.v.v.v.v.v.v.v.v.",
"v.v.v.v.v.v.v.v.v.v.v.v.v.v.0 W >.i.=.-.y.p.$.;.u.O.@.+.s v.v.v.v.v.v.v.v.v.v.",
"v.v.v.v.v.v.v.v.v.v.v.v.v.q W &.-.>.u.9.;.;.,.&.>.O.v R R q v.v.v.v.v.v.v.v.v.",
"v.v.v.v.v.v.v.v.v.v.v.v.j ! ~ @.@.y.0.8.;.>.>.&.O.W N # 2 v.v.v.v.v.v.v.v.v.v.",
"v.v.v.v.v.v.v.v.v.v.o q l q L ~ y.8.8.u.u.>.&.+.+.N k k $ v.v.v.v.v.v.v.v.v.v.",
"v.v.v.v.v.v.v.v.v.v.v.v.X k +.=.8.u.;.>.>.:.&.+.~ %.W a o v.v.v.v.v.v.v.v.v.v.",
"v.v.v.v.v.v.v.v.v.v.v.v.z @.:.;.-.,.&.&.&.>.>.&.@.@.&.K 7 v.v.v.v.v.v.v.v.v.v.",
"v.v.v.v.v.v.v.v.v.  4 z ~ +.+.&.@.@.&.&.+.>.,.-.,.&.&.N Y J 0 v.v.v.v.v.v.v.v.",
"v.v.v.v.v.v.v.v.v.v.. o s ~ >.;.&.>.-.>.~ $.9.9.p.,.@.V 0 l 0 v.v.v.v.v.v.v.v.",
"v.v.v.v.v.v.v.v.v.v.1 a P >.,.>.>.i.u.>.@.&.p.p.9.8.o.v m 4 v.v.v.v.v.v.v.v.v.",
"v.v.v.v.v.v.v.v.2 l J ~ @.W +.:.i.,.;.@.@.&.;.-.*.p.:.l 3 v.v.v.v.v.v.v.v.v.v.",
"v.v.v.v.v.v.v.v.v.0 l k s g W i.,.&.+.P >.:.&.@.~ :.:.P 9 v.v.v.v.v.v.v.v.v.v.",
"v.v.v.v.v.v.v.v.O 1 % 5 f K y.=.P +.E Y *.=.P $.~ ! +.+.F 6 v.v.v.v.v.v.v.v.v.",
"v.v.v.v.v.v.v.v.1 6 f S K E K H E @.~ Q +.>.! T ~ Q Y I H f s 2 v.v.v.v.v.v.v.",
"v.v.v.v.v.v.v.# 4 D I H h S S H ~ +.~ Q +.+.@.Q Q Y U D l H J J s + v.v.v.v.v.",
"v.v.v.v.v.v.v.4 G I G d a F T Y Q Q U Q ! ! Q Q Y Q Y Q q 3 4 + v.v.v.v.v.v.v.",
"v.v.v.v.v.v.v.v.v.+ O 3 S S S F F U H T Q Y Y Q I G ~ +.+.k 0 X v.v.v.v.v.v.v.",
"v.v.v.v.v.v.v.v.v.4 q J H F F 9 F Q H H Y S F Q Y G G ~ +.! k v.v.v.v.v.v.v.v.",
"v.v.v.v.v.v.v.v.v.2 j G z l 4 1 h F a F g d d d U Y g 0 0 2 v.v.v.v.v.v.v.v.v.",
"v.v.v.v.v.v.v.v.v.v.v.X . O + l F 9 2 S 5 a H 3 9 q G U q v.v.v.v.v.v.v.v.v.v.",
"v.v.v.v.v.v.v.v.v.v.v.v.v.2 g I s 2 z g = 8 z I D 2 + 3 v.v.v.v.v.v.v.v.v.v.v.",
"v.v.v.v.v.v.v.v.v.v.v.v.v.v.+ +   + r ^ _ ) * 2 2 v.v.v.v.v.v.v.v.v.v.v.v.v.v.",
"v.v.v.v.v.v.v.v.v.v.v.v.v.v.v.v.= / ( _ ' ` : & v.v.v.v.v.v.v.v.v.v.v.v.v.v.v.",
"v.v.v.v.v.v.v.v.v.v.v.v.v.v.v.v.- _ / / ) ) ; = v.v.v.v.v.v.v.v.v.v.v.v.v.v.v.",
"v.v.v.v.v.v.v.v.v.v.v.v.v.v.v.v.v.> ; v.: v.v.v.v.v.v.v.v.v.v.v.v.v.v.v.v.v.v.",
"v.v.v.v.v.v.v.v.v.v.v.v.v.v.v.v.v.v.v.v.v.v.v.v.v.v.v.v.v.v.v.v.v.v.v.v.v.v.v.",
"v.v.v.v.v.v.v.v.v.v.v.v.v.v.v.v.v.v.v.v.v.v.v.v.v.v.v.v.v.v.v.v.v.v.v.v.v.v.v.",
"v.v.v.v.v.v.v.v.v.v.v.v.v.v.v.v.v.v.v.v.v.v.v.v.v.v.v.v.v.v.v.v.v.v.v.v.v.v.v.",
"v.v.v.v.v.v.v.v.v.v.v.v.v.v.v.v.v.v.v.v.v.v.v.v.v.v.v.v.v.v.v.v.v.v.v.v.v.v.v.",
"v.v.v.v.v.v.v.v.v.v.v.v.v.v.v.v.v.v.v.v.v.v.v.v.v.v.v.v.v.v.v.v.v.v.v.v.v.v.v."
};
